# xmcd
#
# Track frame offsets:
#  183
#  31935
#  46910
#  65370
#  76715
#  92378
#  110095
#  134860
#  159968
#  182605
#  206808
#  229225
#  254553
#  273603
#  293865
#  306958
#  323875
#
# Disc length: 4565 seconds
#
# Revision: 4
# Processed by: cddbd v1.5.2PL0 Copyright (c) Steve Scherf et al.
# Submitted via: Collectorz.com_Music_Collector 6.10
#
DISCID=f511d311
DTITLE=Various Artist - Still Got The Blues
DYEAR=1994
DGENRE=Blues
TTITLE0=Walter Trout Band - Say Goodbye To The Blues
TTITLE1=Gary Moore - Parisienne Walkaways
TTITLE2=Rory Block - Lovin' Whiskey
TTITLE3=John Lee Hooker - Boom Boom
TTITLE4=BB King - Ain't Nobody Home
TTITLE5=Buddy Guy - Worried Blues
TTITLE6=Albert Collins - Robert Cray - The Dream
TTITLE7=Joe Cocker - Five Women
TTITLE8=Pinetops Perkins - Blues After Hours
TTITLE9=Lonnie Mack - Stop
TTITLE10=Koko Taylor - I'd Rather Go Blind
TTITLE11=John Miles - Now That The Magic Has Gone
TTITLE12=Lonnie Brooks - Watch What You Got
TTITLE13=Bonnie Raitt - A.C. Reed - She's Fine
TTITLE14=Muddy Waters - Mannish Boy
TTITLE15=Robert Cray - Who's Been Talkin'
TTITLE16=Big John's Blues Fantasy - Still Got The Blues
EXTD=
EXTT0=
EXTT1=
EXTT2=
EXTT3=
EXTT4=
EXTT5=
EXTT6=
EXTT7=
EXTT8=
EXTT9=
EXTT10=
EXTT11=
EXTT12=
EXTT13=
EXTT14=
EXTT15=
EXTT16=
PLAYORDER=
